<svg width="18" height="18" viewBox="0 0 18 18" fill="none" xmlns="http://www.w3.org/2000/svg">
<path d="M14.3544 0.285713H3.64007C1.86551 0.285713 0.425781 1.72545 0.425781 3.5V14.2143C0.425781 15.9888 1.86551 17.4286 3.64007 17.4286H9.57757V10.7879H7.34542V8.19866H9.57757V6.29018C9.57757 4.08036 10.9392 2.875 12.9146 2.875C13.8521 2.875 14.6669 2.94196 14.9012 2.97545V5.28571L13.5396 5.29688C12.457 5.29688 12.2561 5.79911 12.2561 6.54687V8.19866H14.8119L14.4771 10.7879H12.2561V17.4286H14.3544C16.1289 17.4286 17.5686 15.9888 17.5686 14.2143V3.5C17.5686 1.72545 16.1289 0.285713 14.3544 0.285713Z" fill="white"/>
</svg>
