<svg width="19" height="15" viewBox="0 0 19 15" fill="none" xmlns="http://www.w3.org/2000/svg">
<path d="M18.2932 2.41071C17.6459 2.68973 16.9428 2.89062 16.2174 2.96875C16.9651 2.52232 17.5343 1.8192 17.8022 0.982143C17.1102 1.39509 16.329 1.69643 15.5142 1.85268C14.8557 1.14955 13.9182 0.714285 12.8803 0.714285C10.8825 0.714285 9.27539 2.33259 9.27539 4.3192C9.27539 4.59821 9.30887 4.87723 9.36468 5.14509C6.37361 4.98884 3.70619 3.56027 1.93164 1.37277C1.61914 1.90848 1.44057 2.52232 1.44057 3.19196C1.44057 4.44196 2.07673 5.54687 3.04771 6.1942C2.45619 6.17187 1.89816 6.00446 1.41825 5.73661C1.41825 5.74777 1.41825 5.77009 1.41825 5.78125C1.41825 7.53348 2.65709 8.98438 4.30887 9.3192C4.00753 9.39732 3.68387 9.44196 3.36021 9.44196C3.12584 9.44196 2.90262 9.41964 2.67941 9.38616C3.137 10.8147 4.46512 11.8527 6.04994 11.8862C4.81111 12.8571 3.25977 13.4263 1.5745 13.4263C1.27316 13.4263 0.994141 13.4152 0.703962 13.3817C2.29994 14.4085 4.19727 15 6.23968 15C12.8691 15 16.4964 9.50893 16.4964 4.7433C16.4964 4.58705 16.4964 4.4308 16.4852 4.27455C17.1883 3.76116 17.8022 3.125 18.2932 2.41071Z" fill="white"/>
</svg>
