<svg width="183" height="58" viewBox="0 0 183 58" fill="none" xmlns="http://www.w3.org/2000/svg">
<g filter="url(#filter0_d)">
<rect x="2" width="179" height="54" rx="3" fill="#F44336"/>
</g>
<path d="M59.3018 28.8623L59.4932 30.1748L59.7734 28.9922L61.7422 22.0469H62.8496L64.7705 28.9922L65.0439 30.1953L65.2559 28.8555L66.8008 22.0469H68.1201L65.707 32H64.5107L62.46 24.7471L62.3027 23.9883L62.1455 24.7471L60.0195 32H58.8232L56.417 22.0469H57.7295L59.3018 28.8623ZM74.7783 29.4023H70.6084L69.6719 32H68.3184L72.1191 22.0469H73.2676L77.0752 32H75.7285L74.7783 29.4023ZM71.0049 28.3223H74.3887L72.6934 23.667L71.0049 28.3223ZM84.4033 23.127H81.2041V32H79.8984V23.127H76.7061V22.0469H84.4033V23.127ZM93.0098 28.8418C92.8867 29.8945 92.4971 30.708 91.8408 31.2822C91.1891 31.8519 90.321 32.1367 89.2363 32.1367C88.0605 32.1367 87.1172 31.7152 86.4062 30.8721C85.6999 30.029 85.3467 28.901 85.3467 27.4883V26.5312C85.3467 25.6061 85.5107 24.7926 85.8389 24.0908C86.1715 23.389 86.641 22.8512 87.2471 22.4775C87.8532 22.0993 88.555 21.9102 89.3525 21.9102C90.4098 21.9102 91.2575 22.2064 91.8955 22.7988C92.5335 23.3867 92.9049 24.2025 93.0098 25.2461H91.6904C91.5765 24.4531 91.3281 23.8789 90.9453 23.5234C90.5671 23.168 90.0361 22.9902 89.3525 22.9902C88.514 22.9902 87.8555 23.3001 87.377 23.9199C86.903 24.5397 86.666 25.4215 86.666 26.5654V27.5293C86.666 28.6094 86.8916 29.4684 87.3428 30.1064C87.7939 30.7445 88.4251 31.0635 89.2363 31.0635C89.9655 31.0635 90.5238 30.8994 90.9111 30.5713C91.3031 30.2386 91.5628 29.6621 91.6904 28.8418H93.0098ZM102.457 32H101.138V27.3994H96.1201V32H94.8076V22.0469H96.1201V26.3262H101.138V22.0469H102.457V32ZM111.556 30.2568L114.399 22.0469H115.835L112.144 32H110.981L107.297 22.0469H108.726L111.556 30.2568ZM118.583 32H117.271V22.0469H118.583V32ZM120.989 32V22.0469H123.799C124.665 22.0469 125.43 22.2383 126.096 22.6211C126.761 23.0039 127.274 23.5485 127.634 24.2549C127.998 24.9613 128.183 25.7725 128.188 26.6885V27.3242C128.188 28.263 128.005 29.0856 127.641 29.792C127.281 30.4984 126.763 31.0407 126.089 31.4189C125.419 31.7972 124.637 31.9909 123.744 32H120.989ZM122.302 23.127V30.9268H123.683C124.694 30.9268 125.48 30.6123 126.041 29.9834C126.606 29.3545 126.889 28.459 126.889 27.2969V26.7158C126.889 25.5856 126.622 24.7083 126.089 24.084C125.56 23.4551 124.808 23.1361 123.833 23.127H122.302ZM135.803 27.3994H131.489V30.9268H136.5V32H130.177V22.0469H136.432V23.127H131.489V26.3262H135.803V27.3994ZM145.79 27.3447C145.79 28.32 145.626 29.1722 145.298 29.9014C144.97 30.626 144.505 31.1797 143.903 31.5625C143.302 31.9453 142.6 32.1367 141.798 32.1367C141.014 32.1367 140.319 31.9453 139.713 31.5625C139.107 31.1751 138.635 30.626 138.298 29.915C137.965 29.1995 137.794 28.3724 137.785 27.4336V26.7158C137.785 25.7588 137.951 24.9134 138.284 24.1797C138.617 23.446 139.086 22.8854 139.692 22.498C140.303 22.1061 141 21.9102 141.784 21.9102C142.582 21.9102 143.284 22.1038 143.89 22.4912C144.5 22.874 144.97 23.4323 145.298 24.166C145.626 24.8952 145.79 25.7451 145.79 26.7158V27.3447ZM144.484 26.7021C144.484 25.5218 144.247 24.6172 143.773 23.9883C143.299 23.3548 142.636 23.0381 141.784 23.0381C140.955 23.0381 140.301 23.3548 139.822 23.9883C139.348 24.6172 139.104 25.4922 139.091 26.6133V27.3447C139.091 28.4886 139.33 29.3887 139.809 30.0449C140.292 30.6966 140.955 31.0225 141.798 31.0225C142.646 31.0225 143.302 30.7148 143.767 30.0996C144.231 29.4798 144.471 28.5934 144.484 27.4404V26.7021Z" fill="white"/>
<path d="M51.9018 27.8828L38.5625 35.2958C38.4085 35.3828 38.2746 35.3929 38.1607 35.3259C38.0536 35.2589 38 35.1384 38 34.9643V20.1786C38 20.0045 38.0536 19.8839 38.1607 19.817C38.2746 19.75 38.4085 19.76 38.5625 19.8471L51.9018 27.26C52.0558 27.3471 52.1328 27.4509 52.1328 27.5714C52.1328 27.692 52.0558 27.7958 51.9018 27.8828Z" fill="white"/>
<defs>
<filter id="filter0_d" x="0" y="0" width="183" height="58" filterUnits="userSpaceOnUse" color-interpolation-filters="sRGB">
<feFlood flood-opacity="0" result="BackgroundImageFix"/>
<feColorMatrix in="SourceAlpha" type="matrix" values="0 0 0 0 0 0 0 0 0 0 0 0 0 0 0 0 0 0 127 0"/>
<feOffset dy="2"/>
<feGaussianBlur stdDeviation="1"/>
<feColorMatrix type="matrix" values="0 0 0 0 0.956863 0 0 0 0 0.262745 0 0 0 0 0.211765 0 0 0 0.14 0"/>
<feBlend mode="normal" in2="BackgroundImageFix" result="effect1_dropShadow"/>
<feBlend mode="normal" in="SourceGraphic" in2="effect1_dropShadow" result="shape"/>
</filter>
</defs>
</svg>
